<?xml version="1.0" encoding="utf-8"?>
<!-- Generator: Adobe Illustrator 22.0.1, SVG Export Plug-In . SVG Version: 6.00 Build 0)  -->
<svg version="1.1" id="Layer_1" xmlns="http://www.w3.org/2000/svg" xmlns:xlink="http://www.w3.org/1999/xlink" x="0px" y="0px"
	 viewBox="0 0 200 100" style="enable-background:new 0 0 200 100;" xml:space="preserve">
<style type="text/css">
	.st0{fill:#662D91;}
</style>
<g>
	<path class="st0" d="M36.2,48.6c-0.4,0-1,0-1.7,0c-0.9,0-1.5,0-1.7,0l-2.3,0c-0.2,0-0.6,0-1,0c-0.1,0-0.2-0.1-0.2-0.2
		c0-0.6,0-1.4,0-2.5s0-2,0-2.5c0-0.6,0-1.5-0.1-2.7c0-1.2-0.1-2.1-0.1-2.7c0-0.1,0.1-0.2,0.2-0.2c0.2,0,0.4,0,0.7,0
		c0.3,0,0.5,0,0.7,0c0.2,0,0.4,0,0.8,0c0.3,0,0.6,0,0.8,0c0.1,0,0.1,0,0.1,0.1l0,0.1c-0.1,1-0.1,2.4-0.2,4.4l0,2c0,0.7,0,1.1,0,1.4
		c0,0.1,0,0.1,0,0.2c0,0.1,0,0.1,0.1,0.1c0,0,0.1,0,0.2,0c0.5,0,1.2,0,2.1-0.1c0.9,0,1.6-0.1,2.1-0.1c0.1,0,0.2,0.1,0.2,0.2
		c0,0.9-0.1,1.6-0.2,2.3c0,0.1-0.1,0.2-0.2,0.2C36.5,48.5,36.4,48.6,36.2,48.6z"/>
	<path class="st0" d="M45.7,41.4c0,0.4,0,1-0.1,1.7c0,0.8-0.1,1.3-0.1,1.7c0,0.4,0,0.9,0,1.7c0,0.7,0,1.3,0,1.7
		c0,0.1-0.1,0.2-0.2,0.3c-0.2,0.1-0.6,0.1-1.2,0.1c-0.6,0-1,0-1.2,0c-0.1,0-0.2-0.1-0.2-0.2c0-0.2,0-0.3,0-0.5
		c0-0.2-0.1-0.4-0.1-0.4c0.1,0-0.2,0.2-0.8,0.5c-0.6,0.4-1.1,0.5-1.6,0.5c-1.4,0-2.2-0.6-2.4-1.9c-0.1-0.6-0.2-1.4-0.2-2.5
		c0-1.2,0.1-2.1,0.3-2.8c0.1-0.2,0.2-0.3,0.3-0.3c0.2,0,0.6,0,1.1,0c0.5,0,0.8,0,1.1,0c0.2,0,0.2,0.1,0.2,0.2c0,0,0,0.1,0,0.2
		c-0.1,0.7-0.2,1.4-0.2,2.1c0,0.9,0,1.5,0.1,1.8c0.1,0.6,0.4,0.9,1,0.9c0.2,0,0.5-0.1,0.7-0.3c0.3-0.2,0.4-0.4,0.4-0.6
		c0-0.2,0-1.5,0-3.9c0-0.2,0-0.3,0-0.3c0-0.1,0.1-0.1,0.3-0.1c0.3,0,0.6,0,1.1,0c0.5,0,0.9,0,1.1,0c0.2,0,0.2,0,0.3,0.1
		C45.7,41.2,45.7,41.3,45.7,41.4z"/>
	<path class="st0" d="M54.1,48.6c-0.4,0-1,0-1.7,0c-0.9,0-1.5,0-1.7,0l-2.3,0c-0.2,0-0.6,0-1,0c-0.1,0-0.2-0.1-0.2-0.2
		c0-0.6,0-1.4,0-2.5s0-2,0-2.5c0-0.6,0-1.5-0.1-2.7c0-1.2-0.1-2.1-0.1-2.7c0-0.1,0.1-0.2,0.2-0.2c0.2,0,0.4,0,0.7,0
		c0.3,0,0.5,0,0.7,0c0.2,0,0.4,0,0.8,0c0.3,0,0.6,0,0.8,0c0.1,0,0.1,0,0.1,0.1l0,0.1c-0.1,1-0.1,2.4-0.2,4.4l0,2c0,0.7,0,1.1,0,1.4
		c0,0.1,0,0.1,0,0.2c0,0.1,0,0.1,0.1,0.1c0,0,0.1,0,0.2,0c0.5,0,1.2,0,2.1-0.1c0.9,0,1.6-0.1,2.1-0.1c0.1,0,0.2,0.1,0.2,0.2
		c0,0.9-0.1,1.6-0.2,2.3c0,0.1-0.1,0.2-0.2,0.2C54.4,48.5,54.3,48.6,54.1,48.6z"/>
	<path class="st0" d="M63.6,41.4c0,0.4,0,1-0.1,1.7c0,0.8-0.1,1.3-0.1,1.7c0,0.4,0,0.9,0,1.7c0,0.7,0,1.3,0,1.7
		c0,0.1-0.1,0.2-0.2,0.3c-0.2,0.1-0.6,0.1-1.2,0.1c-0.6,0-1,0-1.2,0c-0.1,0-0.2-0.1-0.2-0.2c0-0.2,0-0.3,0-0.5
		c0-0.2-0.1-0.4-0.1-0.4c0.1,0-0.2,0.2-0.8,0.5c-0.6,0.4-1.1,0.5-1.6,0.5c-1.4,0-2.2-0.6-2.4-1.9c-0.1-0.6-0.2-1.4-0.2-2.5
		c0-1.2,0.1-2.1,0.3-2.8c0.1-0.2,0.2-0.3,0.3-0.3c0.2,0,0.6,0,1.1,0c0.5,0,0.8,0,1.1,0c0.2,0,0.2,0.1,0.2,0.2c0,0,0,0.1,0,0.2
		c-0.1,0.7-0.2,1.4-0.2,2.1c0,0.9,0,1.5,0.1,1.8c0.1,0.6,0.4,0.9,1,0.9c0.2,0,0.5-0.1,0.7-0.3c0.3-0.2,0.4-0.4,0.4-0.6
		c0-0.2,0-1.5,0-3.9c0-0.2,0-0.3,0-0.3c0-0.1,0.1-0.1,0.3-0.1c0.3,0,0.6,0,1.1,0c0.5,0,0.9,0,1.1,0c0.2,0,0.2,0,0.3,0.1
		C63.6,41.2,63.6,41.3,63.6,41.4z"/>
	<path class="st0" d="M67.7,43.8c0,1.4,0,2.5,0,3.2c0,0.1,0,0.3,0,0.6c0,0.3,0,0.5,0,0.6c0,0.1-0.1,0.2-0.2,0.2
		c-0.2,0-0.7,0.1-1.3,0.1c-0.6,0-1,0-1.2-0.1c-0.1,0-0.2-0.1-0.2-0.2c0,0,0-0.1,0-0.3c0-0.5,0-1.1,0-2.1c0-0.9,0-1.6,0-2.1
		c0-2.2,0-3.2,0-3c0-1.1-0.1-2.1-0.2-3c0-0.1,0-0.1,0-0.1c0-0.1,0.1-0.2,0.2-0.2h2.8c0.1,0,0.2,0.1,0.2,0.2l0,0.1
		C67.8,40.1,67.7,42,67.7,43.8z"/>
	<path class="st0" d="M76.9,44.5c0,0.4,0,1,0.1,1.8c0,0.8,0.1,1.4,0.1,1.8c0,0.2-0.1,0.3-0.3,0.3c-0.6,0-1.4,0.1-2.2,0.1
		c-0.1,0-0.2-0.1-0.2-0.4c0-0.3-0.1-0.4-0.1-0.5c0,0-0.1,0.1-0.2,0.1c-0.6,0.6-1.2,0.9-1.9,0.9c-1,0-1.8-0.4-2.5-1.2
		c-0.6-0.7-0.9-1.6-0.9-2.7c0-1.2,0.3-2.2,1-2.9c0.7-0.8,1.6-1.1,2.8-1.1c0.8,0,1.5,0.3,1.9,0.9c0,0,0,0,0.1,0c0,0,0.1-0.1,0.2-0.4
		c0.1-0.3,0.1-0.4,0.2-0.4c0.2,0,0.6,0.1,1.1,0.2c0.5,0.1,0.9,0.2,1.1,0.3c0.1,0,0.1,0.1,0.1,0.1c0,0,0,0.1,0,0.2
		C77,42.5,76.9,43.5,76.9,44.5z M74.4,44.6c0-0.4-0.1-0.8-0.4-1.1s-0.6-0.4-1.1-0.4c-0.4,0-0.8,0.1-1.1,0.4
		c-0.3,0.3-0.4,0.6-0.4,1.1c0,0.4,0.1,0.8,0.4,1.1c0.3,0.3,0.6,0.4,1.1,0.4c0.4,0,0.8-0.1,1.1-0.4S74.4,45,74.4,44.6z"/>
	<path class="st0" d="M81.3,43.8c0,1.4,0,2.5,0,3.2c0,0.1,0,0.3,0,0.6c0,0.3,0,0.5,0,0.6c0,0.1-0.1,0.2-0.2,0.2
		c-0.2,0-0.7,0.1-1.3,0.1c-0.6,0-1,0-1.2-0.1c-0.1,0-0.2-0.1-0.2-0.2c0,0,0-0.1,0-0.3c0-0.5,0-1.1,0-2.1c0-0.9,0-1.6,0-2.1
		c0-2.2,0-3.2,0-3c0-1.1-0.1-2.1-0.2-3c0-0.1,0-0.1,0-0.1c0-0.1,0.1-0.2,0.2-0.2h2.8c0.1,0,0.2,0.1,0.2,0.2l0,0.1
		C81.3,40.1,81.3,42,81.3,43.8z"/>
	<path class="st0" d="M90.5,44.5c0,0.4,0,1,0.1,1.8c0,0.8,0.1,1.4,0.1,1.8c0,0.2-0.1,0.3-0.3,0.3c-0.6,0-1.4,0.1-2.2,0.1
		c-0.1,0-0.2-0.1-0.2-0.4c0-0.3-0.1-0.4-0.1-0.5c0,0-0.1,0.1-0.2,0.1c-0.6,0.6-1.2,0.9-1.9,0.9c-1,0-1.8-0.4-2.5-1.2
		c-0.6-0.7-0.9-1.6-0.9-2.7c0-1.2,0.3-2.2,1-2.9c0.7-0.8,1.6-1.1,2.8-1.1c0.8,0,1.5,0.3,1.9,0.9c0,0,0,0,0.1,0c0,0,0.1-0.1,0.2-0.4
		c0.1-0.3,0.1-0.4,0.2-0.4c0.2,0,0.6,0.1,1.1,0.2c0.5,0.1,0.9,0.2,1.1,0.3c0.1,0,0.1,0.1,0.1,0.1c0,0,0,0.1,0,0.2
		C90.5,42.5,90.5,43.5,90.5,44.5z M88,44.6c0-0.4-0.1-0.8-0.4-1.1s-0.6-0.4-1.1-0.4c-0.4,0-0.8,0.1-1.1,0.4
		c-0.3,0.3-0.4,0.6-0.4,1.1c0,0.4,0.1,0.8,0.4,1.1c0.3,0.3,0.6,0.4,1.1,0.4c0.4,0,0.8-0.1,1.1-0.4S88,45,88,44.6z"/>
</g>
</svg>
